# xmcd
#
# Track frame offsets:
#	150
#	19471
#	40169
#	67152
#	92556
#	109377
#	129833
#	145702
#	159845
#	190553
#	212355
#	229751
#
# Disc length: 3497 seconds
#
# Revision: 2
# Processed by: cddbd v1.5.2PL0 Copyright (c) Steve Scherf et al.
# Submitted via: audiograbber 1.83.01
#
DISCID=990da70c
DTITLE=Downtown Blues Band - Bulls Eye Double
DYEAR=1900
DGENRE=Blues
TTITLE0=I Was Supposed To
TTITLE1=Forever And A Day
TTITLE2=I Need Bluesmusic
TTITLE3=Next Train
TTITLE4=Roll On Over
TTITLE5=Sorry Affair
TTITLE6=When I Kick The Bucket
TTITLE7=Mama Says
TTITLE8=Light Of My Life
TTITLE9=Shy Gal
TTITLE10=All Wound Up
TTITLE11=I Hate To See The Sun Go Down
EXTD=
EXTT0=
EXTT1=
EXTT2=
EXTT3=
EXTT4=
EXTT5=
EXTT6=
EXTT7=
EXTT8=
EXTT9=
EXTT10=
EXTT11=
PLAYORDER=
